<svg width="1200" height="1200" viewBox="0 0 1200 1200" fill="none" xmlns="http://www.w3.org/2000/svg">
  <rect width="1200" height="1200" rx="48" fill="#F5F3FF"/>
  <rect x="90" y="90" width="1020" height="1020" rx="40" fill="#DDD6FE"/>
  <circle cx="600" cy="286" r="110" fill="#F8D4D2"/>
  <path d="M366 426C366 346 430 282 510 282H690C770 282 834 346 834 426V736C834 816 770 880 690 880H510C430 880 366 816 366 736V426Z" fill="#8B5CF6"/>
  <path d="M330 740C330 648 404 574 496 574H704C796 574 870 648 870 740V1022C870 1084 820 1134 758 1134H442C380 1134 330 1084 330 1022V740Z" fill="#EC4899"/>
  <text x="600" y="1076" text-anchor="middle" font-family="Arial, sans-serif" font-size="54" fill="#4C1D95">
    Anime
  </text>
</svg>
