<svg width="1200" height="1500" viewBox="0 0 1200 1500" fill="none" xmlns="http://www.w3.org/2000/svg">
  <rect width="1200" height="1500" rx="48" fill="#111827"/>
  <rect x="92" y="92" width="1016" height="1316" rx="40" fill="#1E293B"/>
  <circle cx="600" cy="340" r="116" fill="#F1D6C2"/>
  <path d="M392 490C392 412 456 348 534 348H666C744 348 808 412 808 490V772C808 850 744 914 666 914H534C456 914 392 850 392 772V490Z" fill="#DC2626"/>
  <path d="M348 792C348 696 426 618 522 618H678C774 618 852 696 852 792V1210C852 1280 796 1336 726 1336H474C404 1336 348 1280 348 1210V792Z" fill="#000000"/>
  <text x="600" y="1292" text-anchor="middle" font-family="Arial, sans-serif" font-size="54" fill="#FCA5A5">
    Celebrity
  </text>
</svg>
